Coordinates
version=1
nRows=115
nColumns=11
inDegrees=no

Units are S.I. units (second, meters, Newtons, ...)
If the header above contains a line with 'inDegrees', this indicates whether rotational values are in degrees (yes) or radians (no).

endheader
time	pelvis_tilt	pelvis_tx	pelvis_ty	hip_flexion_r	knee_angle_r	ankle_angle_r	hip_flexion_l	knee_angle_l	ankle_angle_l	lumbar_extension
315.01	0.0243773	0.172693	0.940177	0.0471301	-0.280013	0.234284	0.463698	-1.05522	0.0295984	0
315.02	0.0166477	0.170481	0.939309	0.0491938	-0.281334	0.23861	0.482215	-1.01547	0.0336398	0
315.03	0.0191404	0.170451	0.9394	0.0299732	-0.268064	0.243045	0.480064	-0.964625	0.0423688	0
315.04	0.00136072	0.167225	0.937628	0.0411616	-0.259608	0.242681	0.507205	-0.914525	0.0519857	0
315.05	-0.00130064	0.166003	0.937084	0.0325087	-0.254244	0.247032	0.509537	-0.858252	0.0626626	0
315.06	-0.00111031	0.165363	0.936684	0.0194422	-0.247676	0.254489	0.503713	-0.795344	0.0659895	0
315.07	-0.00290416	0.164662	0.935887	0.0124298	-0.247613	0.261252	0.500026	-0.730394	0.066068	0
315.08	-0.00668193	0.163253	0.934617	0.00875163	-0.248855	0.267795	0.498782	-0.665146	0.0611206	0
315.09	-0.00938993	0.162338	0.933602	0.00171793	-0.246728	0.275575	0.494189	-0.598195	0.0488411	0
315.1	-0.00994616	0.162239	0.932727	-0.00914983	-0.242835	0.283057	0.48076	-0.522712	0.0362441	0
315.11	-0.00958555	0.162419	0.931705	-0.0218633	-0.237771	0.290503	0.461903	-0.442267	0.0286469	0
315.12	-0.00873911	0.162818	0.930648	-0.0338776	-0.236099	0.298355	0.446691	-0.373372	0.0240397	0
315.13	0.0106859	0.166692	0.930704	-0.0679335	-0.239651	0.311164	0.412831	-0.316992	0.0222398	0
315.14	-0.00821049	0.163428	0.927905	-0.0533593	-0.240155	0.317583	0.427437	-0.260908	0.0251199	0
315.15	-0.00942879	0.163197	0.926077	-0.0594904	-0.244804	0.327284	0.422462	-0.212586	0.0356397	0
315.16	-0.0105491	0.163259	0.924482	-0.0668922	-0.248444	0.337495	0.414465	-0.16229	0.0440151	0
315.17	-0.0114869	0.163575	0.922973	-0.0743272	-0.252551	0.345539	0.40616	-0.115924	0.0490326	0
315.18	-0.0104046	0.164144	0.921421	-0.0852906	-0.254067	0.353936	0.397358	-0.0767965	0.0516618	0
315.19	-0.00776289	0.165075	0.919855	-0.0993056	-0.254066	0.362286	0.389602	-0.0476051	0.0549715	0
315.2	-0.00721993	0.166038	0.918421	-0.109018	-0.257091	0.37103	0.388259	-0.0306363	0.0574444	0
315.21	-0.00785636	0.166636	0.917118	-0.116858	-0.260929	0.379376	0.3904	-0.0262572	0.0595015	0
315.22	-0.00816002	0.167285	0.915789	-0.126905	-0.261467	0.383382	0.39295	-0.032488	0.0627467	0
315.23	-0.00680561	0.168142	0.914468	-0.139131	-0.261652	0.384072	0.394631	-0.0472513	0.0631196	0
315.24	-0.00533636	0.168927	0.913454	-0.15087	-0.261871	0.383426	0.39839	-0.0698153	0.052542	0
315.25	-0.00601164	0.169285	0.912539	-0.15801	-0.266373	0.384532	0.405052	-0.0950366	0.0354529	0
315.26	-0.00695814	0.1698	0.911499	-0.164827	-0.272375	0.387577	0.411133	-0.117456	0.0159699	0
315.27	0.0109747	0.173129	0.911778	-0.196588	-0.277626	0.391668	0.391128	-0.136946	0.00324211	0
315.28	-0.00430714	0.171929	0.910011	-0.187218	-0.276402	0.387798	0.412202	-0.152877	-0.0123484	0
315.29	-0.00262089	0.173525	0.909576	-0.198575	-0.278929	0.385127	0.410036	-0.167556	-0.0247763	0
315.3	0.000700762	0.175161	0.909543	-0.211841	-0.282859	0.377633	0.406902	-0.185025	-0.0385718	0
315.31	0.00247624	0.176839	0.909588	-0.2211	-0.28977	0.370222	0.406608	-0.204447	-0.0497219	0
315.32	0.00433508	0.178579	0.909816	-0.228664	-0.299551	0.363045	0.406991	-0.227576	-0.0522637	0
315.33	0.0248376	0.182774	0.911244	-0.258255	-0.312963	0.356589	0.384189	-0.253604	-0.0448233	0
315.34	0.0073692	0.181392	0.910722	-0.23851	-0.325657	0.336376	0.408791	-0.277124	-0.0350656	0
315.35	0.00811528	0.182744	0.911592	-0.238289	-0.346007	0.317779	0.409266	-0.300963	-0.0204945	0
315.36	0.0095439	0.18458	0.912842	-0.236308	-0.370496	0.296441	0.407242	-0.322083	-0.00454276	0
315.37	0.0111393	0.186024	0.914185	-0.232685	-0.398102	0.272131	0.400417	-0.334291	0.00946909	0
315.38	0.0134308	0.187667	0.915619	-0.225937	-0.431109	0.242004	0.389947	-0.340772	0.0227526	0
315.39	0.0309433	0.191526	0.917877	-0.23687	-0.46605	0.211306	0.357773	-0.343785	0.0325747	0
315.4	0.0201875	0.190973	0.918783	-0.205566	-0.508509	0.175005	0.363367	-0.347954	0.0411071	0
315.41	0.0226575	0.192228	0.920219	-0.188533	-0.555682	0.14299	0.349756	-0.34917	0.0536862	0
315.42	0.0251431	0.193257	0.921547	-0.168941	-0.605799	0.108239	0.338133	-0.352413	0.0647512	0
315.43	0.0413034	0.196133	0.923602	-0.165171	-0.657776	0.0731007	0.309612	-0.357126	0.0769096	0
315.44	0.0396093	0.196098	0.924921	-0.135167	-0.713273	0.0356622	0.301378	-0.35618	0.0882368	0
315.45	0.0404226	0.196237	0.926211	-0.107374	-0.768664	0.00122544	0.289372	-0.35539	0.0969819	0
315.46	0.0426804	0.196489	0.927434	-0.0807848	-0.822433	-0.0319867	0.276249	-0.354056	0.100671	0
315.47	0.0434147	0.196327	0.928479	-0.0522268	-0.873805	-0.0630167	0.264194	-0.350589	0.106237	0
315.48	0.0430677	0.19607	0.929556	-0.0236059	-0.920437	-0.088301	0.253814	-0.34829	0.116242	0
315.49	0.0435821	0.195775	0.930753	0.00216756	-0.961872	-0.102843	0.243466	-0.347771	0.124532	0
315.5	0.0451773	0.195552	0.932195	0.0256342	-1.00177	-0.0922586	0.231559	-0.346454	0.129869	0
315.51	0.0476615	0.195315	0.933717	0.0479606	-1.0401	-0.063058	0.215327	-0.33811	0.13602	0
315.52	0.0478512	0.194678	0.934872	0.0743452	-1.07813	-0.0287632	0.202143	-0.329559	0.140538	0
315.53	0.0351605	0.191738	0.935006	0.120797	-1.11655	-0.00236392	0.204932	-0.317781	0.142593	0
315.54	0.0347408	0.190548	0.936126	0.147186	-1.14366	0.0187387	0.192257	-0.308491	0.141761	0
315.55	0.0351692	0.189207	0.93748	0.171296	-1.16392	0.035757	0.179473	-0.299901	0.141531	0
315.56	0.0362859	0.188137	0.938749	0.192964	-1.17851	0.0479633	0.16692	-0.293881	0.14474	0
315.57	0.0374545	0.187127	0.939996	0.213441	-1.18828	0.0553399	0.153011	-0.285623	0.14944	0
315.58	0.0382038	0.185917	0.94117	0.235071	-1.19557	0.0618578	0.138561	-0.274892	0.151521	0
315.59	0.0371077	0.184183	0.941923	0.258553	-1.19966	0.0679283	0.126627	-0.264014	0.152968	0
315.6	0.0519186	0.185209	0.944031	0.253774	-1.19112	0.0673647	0.0939454	-0.256719	0.156659	0
315.61	0.0549114	0.184372	0.945192	0.267027	-1.18242	0.0682795	0.073864	-0.241179	0.157749	0
315.62	0.0536364	0.182259	0.945555	0.287034	-1.17225	0.0759812	0.0632316	-0.232023	0.163202	0
315.63	0.0525008	0.180084	0.945538	0.305678	-1.15728	0.0883322	0.0536487	-0.224718	0.169742	0
315.64	0.0515392	0.178057	0.945615	0.321668	-1.13647	0.101368	0.0435685	-0.217411	0.172256	0
315.65	0.0507175	0.176366	0.945836	0.335335	-1.11075	0.108783	0.0316394	-0.208479	0.172509	0
315.66	0.0505493	0.174749	0.945971	0.345666	-1.07935	0.119271	0.0182125	-0.197762	0.176775	0
315.67	0.0491272	0.172852	0.945975	0.357304	-1.04462	0.129947	0.00999623	-0.192914	0.185776	0
315.68	0.0461334	0.170458	0.945847	0.369448	-1.0048	0.133584	0.00580185	-0.191073	0.192878	0
315.69	0.0298935	0.166247	0.944668	0.399277	-0.961701	0.134672	0.0168735	-0.182415	0.189714	0
315.7	0.0285618	0.16394	0.944464	0.403295	-0.910907	0.131562	0.00714491	-0.17703	0.187719	0
315.71	0.0267534	0.162061	0.944028	0.406568	-0.857254	0.126764	-0.00142767	-0.172018	0.189851	0
315.72	0.0249086	0.160358	0.943588	0.406553	-0.79817	0.11516	-0.00954217	-0.167072	0.197342	0
315.73	0.0229672	0.158636	0.942832	0.406435	-0.738735	0.0986902	-0.0171959	-0.163003	0.206983	0
315.74	0.0210071	0.156924	0.941852	0.404672	-0.67649	0.0845014	-0.0247365	-0.159361	0.216829	0
315.75	0.0186016	0.155176	0.940908	0.401589	-0.611666	0.0726999	-0.0302989	-0.158718	0.221614	0
315.76	0.0161165	0.153567	0.939992	0.397729	-0.547479	0.0642119	-0.0365589	-0.156907	0.227359	0
315.77	0.0316064	0.15553	0.940033	0.369702	-0.483736	0.0641514	-0.0646172	-0.159025	0.237675	0
315.78	0.0323864	0.154835	0.939022	0.359379	-0.418581	0.06499	-0.0738666	-0.160422	0.24621	0
315.79	0.0306571	0.153808	0.937645	0.352093	-0.353719	0.0661965	-0.0787678	-0.164005	0.258742	0
315.8	0.0109868	0.149437	0.934969	0.366419	-0.287392	0.0674859	-0.0623007	-0.162669	0.265943	0
315.81	0.0265008	0.151687	0.934755	0.336977	-0.226911	0.0665053	-0.0880854	-0.16853	0.281938	0
315.82	0.0249585	0.150831	0.9333	0.328464	-0.166788	0.0607778	-0.0938006	-0.170981	0.292332	0
315.83	0.00844972	0.147174	0.930794	0.342595	-0.116445	0.0545124	-0.0814289	-0.171844	0.296505	0
315.84	0.00766985	0.146576	0.929465	0.341048	-0.0776096	0.0515353	-0.087661	-0.175737	0.303036	0
315.85	0.00697573	0.145921	0.928201	0.340132	-0.0442378	0.0483319	-0.0924833	-0.182416	0.312558	0
315.86	0.00617031	0.145295	0.926847	0.341269	-0.0208529	0.0475723	-0.0981053	-0.188206	0.320767	0
315.87	0.00566336	0.14475	0.925488	0.344781	-0.00953378	0.0538097	-0.105688	-0.19095	0.32872	0
315.88	0.00537821	0.14452	0.924438	0.350787	-0.0106916	0.0602086	-0.113757	-0.192996	0.336207	0
315.89	0.00559711	0.144417	0.923696	0.358356	-0.0224979	0.0625459	-0.121404	-0.19713	0.346053	0
315.9	0.0055429	0.143974	0.922843	0.367323	-0.0406372	0.0611959	-0.127328	-0.203173	0.355951	0
315.91	0.00523365	0.143468	0.921881	0.375492	-0.060177	0.0579877	-0.13391	-0.2074	0.359151	0
315.92	0.00454665	0.14316	0.921095	0.382978	-0.081278	0.0512326	-0.140603	-0.211038	0.360359	0
315.93	0.00446007	0.143085	0.92034	0.388656	-0.10331	0.0461189	-0.147984	-0.214859	0.364469	0
315.94	0.00483543	0.143267	0.919698	0.391946	-0.124676	0.0418033	-0.156424	-0.218085	0.367314	0
315.95	0.00627746	0.143901	0.919108	0.392489	-0.145042	0.0365925	-0.167483	-0.219189	0.368649	0
315.96	0.00891583	0.144991	0.918798	0.388652	-0.159933	0.0290225	-0.181536	-0.217894	0.367936	0
315.97	0.011327	0.146199	0.918661	0.382981	-0.170195	0.0191617	-0.192828	-0.222217	0.364118	0
315.98	0.0137829	0.147406	0.91853	0.376167	-0.178051	0.0102491	-0.203911	-0.226868	0.359315	0
315.99	0.016499	0.148802	0.918245	0.368205	-0.183832	-0.000169909	-0.216633	-0.229358	0.35062	0
316	0.0193838	0.150136	0.918217	0.361785	-0.191888	-0.0172891	-0.227978	-0.233771	0.342946	0
316.01	0.0227852	0.151741	0.918337	0.355685	-0.202548	-0.0322734	-0.238403	-0.2417	0.338287	0
316.02	0.0256589	0.153152	0.918598	0.351838	-0.21741	-0.0410041	-0.246076	-0.252628	0.331661	0
316.03	0.0284853	0.154217	0.919053	0.348796	-0.235338	-0.0365361	-0.25063	-0.268118	0.322132	0
316.04	0.0295906	0.154903	0.919634	0.347537	-0.254218	-0.0272171	-0.250658	-0.288536	0.312531	0
316.05	0.029553	0.155526	0.920414	0.346807	-0.272591	-0.0130545	-0.247361	-0.313356	0.298929	0
316.06	0.0443157	0.158787	0.921938	0.3267	-0.28971	0.00401433	-0.259347	-0.342818	0.285299	0
316.07	0.0290091	0.156626	0.921939	0.341476	-0.299406	0.011213	-0.230632	-0.375207	0.263944	0
316.08	0.0292129	0.157209	0.92289	0.335026	-0.307067	0.0183922	-0.219583	-0.411016	0.243605	0
316.09	0.0300358	0.157952	0.924004	0.326337	-0.312559	0.0263132	-0.207758	-0.448314	0.220687	0
316.1	0.049463	0.161484	0.926165	0.292984	-0.317392	0.0366166	-0.217942	-0.488781	0.197777	0
316.11	0.051398	0.162396	0.927476	0.279679	-0.316117	0.0462667	-0.202849	-0.531927	0.168646	0
316.12	0.0708748	0.165421	0.92883	0.250152	-0.32536	0.0523793	-0.196352	-0.600707	0.138228	0
316.13	0.0300009	0.159671	0.927976	0.28546	-0.310108	0.0623161	-0.125376	-0.641336	0.104184	0
316.14	0.0300789	0.159595	0.928728	0.276066	-0.310043	0.071211	-0.0976392	-0.69793	0.0696586	0
316.15	0.0304192	0.159354	0.929498	0.267438	-0.312308	0.0789942	-0.0668947	-0.756934	0.0322785	0
